<?xml version="1.0" encoding="UTF-8"?>
<!-- Uploaded to: SVG Find, www.svgrepo.com, Generator: SVG Find Mixer Tools -->
<svg fill="#000000" width="800px" height="800px" version="1.1" viewBox="144 144 512 512" xmlns="http://www.w3.org/2000/svg">
 <path d="m636.16 514.8c-0.039062 27.871-9.6523 54.883-27.234 76.512-17.578 21.629-42.059 36.559-69.336 42.289 1.332-4.2695 2.0391-8.7109 2.1055-13.184v-166c0-2.4219-0.21094-4.7969-0.39062-7.1797h16.922c42.969 0 77.934 30.312 77.934 67.566zm-377.86-60.387c0-2.4219 0.21094-4.7969 0.39062-7.1797h-16.918c-42.973 0-77.938 30.312-77.938 67.566 0.039062 27.871 9.6523 54.883 27.234 76.512 17.582 21.629 42.059 36.559 69.336 42.289-1.332-4.2695-2.0391-8.7109-2.1055-13.184zm173.97-70.156h-64.543c-19.617-0.95312-38.82 5.8867-53.418 19.027s-23.41 31.52-24.52 51.129v166c0 4.1758 1.6602 8.1836 4.6094 11.137 2.9531 2.9492 6.9609 4.6094 11.137 4.6094h188.93c4.1797 0 8.1836-1.6602 11.137-4.6094 2.9531-2.9531 4.6094-6.9609 4.6094-11.137v-166c-1.1055-19.609-9.9219-37.988-24.52-51.129s-33.797-19.98-53.418-19.027zm-32.27-31.488c20.875 0 40.898-8.293 55.664-23.055 14.762-14.766 23.055-34.785 23.055-55.664s-8.293-40.902-23.055-55.664c-14.766-14.762-34.789-23.059-55.664-23.059-20.879 0-40.902 8.2969-55.664 23.059-14.766 14.762-23.059 34.785-23.059 55.664 0.027344 20.871 8.3281 40.879 23.086 55.637 14.758 14.758 34.766 23.059 55.637 23.082zm-141.7 62.977c16.703 0 32.723-6.6328 44.531-18.445 11.812-11.809 18.445-27.828 18.445-44.531s-6.6328-32.719-18.445-44.531c-11.809-11.809-27.828-18.445-44.531-18.445-16.699 0-32.719 6.6367-44.531 18.445-11.809 11.812-18.445 27.828-18.445 44.531 0.019531 16.699 6.6602 32.707 18.465 44.512 11.809 11.809 27.816 18.449 44.512 18.465zm283.39 0c16.703 0 32.719-6.6328 44.531-18.445 11.809-11.809 18.445-27.828 18.445-44.531s-6.6367-32.719-18.445-44.531c-11.812-11.809-27.828-18.445-44.531-18.445-16.703 0-32.723 6.6367-44.531 18.445-11.809 11.812-18.445 27.828-18.445 44.531 0.019531 16.699 6.6602 32.707 18.465 44.512 11.805 11.809 27.816 18.449 44.512 18.465z"/>
</svg>